<svg width="15" height="15" fill="none" xmlns="http://www.w3.org/2000/svg"><path d="M13.27 15h-.098C1.839 14.348.23 4.783.005 1.863A1.731 1.731 0 011.597 0h3.178a1.153 1.153 0 011.073.727l.876 2.158A1.154 1.154 0 016.47 4.13L5.242 5.37a5.406 5.406 0 004.371 4.385l1.252-1.24a1.153 1.153 0 011.251-.237l2.175.871A1.154 1.154 0 0115 10.223v3.046A1.731 1.731 0 0113.27 15zM1.736 1.154a.577.577 0 00-.577.577v.046c.265 3.415 1.967 11.492 12.076 12.07a.579.579 0 00.612-.543v-3.08l-2.175-.872-1.655 1.644-.277-.035c-5.017-.628-5.698-5.648-5.698-5.7l-.034-.276 1.638-1.656-.865-2.175H1.736z" fill="#fff"/></svg>