<svg width="67" height="54" fill="none" xmlns="http://www.w3.org/2000/svg"><path d="M61.193 15.548l-4.08 6.143a26.579 26.579 0 01-.73 25.168H10.395a26.58 26.58 0 013.681-31.486 26.526 26.526 0 0131.19-5.536l6.139-4.084A33.16 33.16 0 0010.64 9.635 33.225 33.225 0 004.69 50.18a6.639 6.639 0 005.706 3.32H56.35a6.632 6.632 0 005.773-3.32 33.223 33.223 0 00-.895-34.665l-.034.033zM28.711 38.26a6.636 6.636 0 007.236 1.442 6.635 6.635 0 002.154-1.442l18.78-28.19-28.17 18.794a6.64 6.64 0 00-1.44 7.241 6.64 6.64 0 001.44 2.155z" fill="#000"/></svg>