<svg width="67" height="54" fill="none" xmlns="http://www.w3.org/2000/svg"><path d="M51.087 20.25H35.175v5.907c0 4.187-3.382 7.593-7.538 7.593-4.156 0-7.537-3.406-7.537-7.593V13.332l-6.794 4.113a6.746 6.746 0 00-3.256 5.78v4.988l-8.375 4.873A3.38 3.38 0 00.45 37.695l8.375 14.618a3.338 3.338 0 004.575 1.234l10.824-6.297h14.3c3.696 0 6.7-3.027 6.7-6.75H46.9c1.853 0 3.35-1.508 3.35-3.375v-6.75h.837a2.516 2.516 0 002.513-2.531v-5.063a2.516 2.516 0 00-2.513-2.53zm15.463-3.944L58.175 1.688A3.338 3.338 0 0053.6.454L42.775 6.75H32.076a6.713 6.713 0 00-3.549 1.023L25.02 9.978a3.358 3.358 0 00-1.57 2.858v13.32c0 2.331 1.874 4.22 4.187 4.22 2.314 0 4.188-1.889 4.188-4.22v-9.28h19.262c3.235 0 5.863 2.646 5.863 5.905v3.006l8.375-4.872a3.392 3.392 0 001.225-4.61z" fill="#000"/></svg>