<svg width="47" height="62" fill="none" xmlns="http://www.w3.org/2000/svg"><path d="M41.125 7.75h-9.792C31.333 3.475 27.821 0 23.5 0c-4.32 0-7.833 3.475-7.833 7.75H5.875C2.632 7.75 0 10.354 0 13.563v42.624C0 59.398 2.632 62 5.875 62h35.25C44.368 62 47 59.397 47 56.187V13.563c0-3.21-2.632-5.813-5.875-5.813zM11.75 51.344c-1.628 0-2.938-1.296-2.938-2.907 0-1.61 1.31-2.906 2.938-2.906 1.628 0 2.938 1.296 2.938 2.907 0 1.61-1.31 2.906-2.938 2.906zm0-11.625c-1.628 0-2.938-1.296-2.938-2.907 0-1.61 1.31-2.906 2.938-2.906 1.628 0 2.938 1.296 2.938 2.907 0 1.61-1.31 2.906-2.938 2.906zm0-11.625c-1.628 0-2.938-1.296-2.938-2.907 0-1.61 1.31-2.906 2.938-2.906 1.628 0 2.938 1.296 2.938 2.907 0 1.61-1.31 2.906-2.938 2.906zM23.5 4.844c1.628 0 2.938 1.295 2.938 2.906 0 1.61-1.31 2.906-2.938 2.906-1.628 0-2.938-1.295-2.938-2.906 0-1.61 1.31-2.906 2.938-2.906zm15.667 44.562a.977.977 0 01-.98.969H20.564a.977.977 0 01-.98-.969V47.47c0-.533.441-.969.98-.969h17.625c.538 0 .979.436.979.969v1.937zm0-11.625a.977.977 0 01-.98.969H20.564a.977.977 0 01-.98-.969v-1.937c0-.533.441-.969.98-.969h17.625c.538 0 .979.436.979.969v1.937zm0-11.625a.977.977 0 01-.98.969H20.564a.977.977 0 01-.98-.969V24.22c0-.533.441-.969.98-.969h17.625c.538 0 .979.436.979.969v1.937z" fill="#000"/></svg>