<svg width="54" height="48" fill="none" xmlns="http://www.w3.org/2000/svg"><path d="M52.5 6A1.5 1.5 0 0054 4.5v-3A1.5 1.5 0 0052.5 0h-51A1.5 1.5 0 000 1.5v3A1.5 1.5 0 001.5 6h1.498v36H1.5A1.5 1.5 0 000 43.5v3A1.5 1.5 0 001.5 48H24v-7.5c0-.825.675-1.5 1.5-1.5h3c.825 0 1.5.675 1.5 1.5V48h22.5a1.5 1.5 0 001.5-1.5v-3a1.5 1.5 0 00-1.5-1.5H51V6h1.5zM24 10.2c0-.6.6-1.2 1.2-1.2h3.6c.6 0 1.2.6 1.2 1.2v3.6c0 .6-.6 1.2-1.2 1.2h-3.6c-.6 0-1.2-.6-1.2-1.2v-3.6zm0 9c0-.6.6-1.2 1.2-1.2h3.6c.6 0 1.2.6 1.2 1.2v3.6c0 .6-.6 1.2-1.2 1.2h-3.6c-.6 0-1.2-.6-1.2-1.2v-3.6zm-12-9c0-.6.6-1.2 1.2-1.2h3.6c.6 0 1.2.6 1.2 1.2v3.6c0 .6-.6 1.2-1.2 1.2h-3.6c-.6 0-1.2-.6-1.2-1.2v-3.6zM16.8 24h-3.6c-.6 0-1.2-.6-1.2-1.2v-3.6c0-.6.6-1.2 1.2-1.2h3.6c.6 0 1.2.6 1.2 1.2v3.6c0 .6-.6 1.2-1.2 1.2zM18 36a9 9 0 1118 0H18zm24-13.2c0 .6-.6 1.2-1.2 1.2h-3.6c-.6 0-1.2-.6-1.2-1.2v-3.6c0-.6.6-1.2 1.2-1.2h3.6c.6 0 1.2.6 1.2 1.2v3.6zm0-9c0 .6-.6 1.2-1.2 1.2h-3.6c-.6 0-1.2-.6-1.2-1.2v-3.6c0-.6.6-1.2 1.2-1.2h3.6c.6 0 1.2.6 1.2 1.2v3.6z" fill="#000"/></svg>