<svg width="55" height="63" fill="none" xmlns="http://www.w3.org/2000/svg"><path d="M1.473 23.625h52.054c.81 0 1.473.665 1.473 1.477v31.992C55 60.354 52.36 63 49.107 63H5.893C2.64 63 0 60.355 0 57.094V25.102a1.48 1.48 0 011.473-1.477zM55 18.211v-4.43c0-3.26-2.64-5.906-5.893-5.906h-5.893V1.477A1.48 1.48 0 0041.741 0h-4.91a1.48 1.48 0 00-1.474 1.477v6.398H19.643V1.477A1.48 1.48 0 0018.17 0h-4.911a1.48 1.48 0 00-1.473 1.477v6.398H5.893C2.64 7.875 0 10.521 0 13.781v4.43a1.48 1.48 0 001.473 1.477h52.054A1.48 1.48 0 0055 18.21z" fill="#000"/></svg>