<svg width="436" height="353" fill="none" xmlns="http://www.w3.org/2000/svg"><g clip-path="url(#clip0_56:76)"><path d="M348.07 64.3c-2.265 24.91-8.717 51.178-18.837 76.523-12.514 31.342-29.611 58.947-49.444 79.832l-1.101-.958c19.737-20.784 36.757-48.268 49.218-79.48 11.263-28.206 17.962-57.559 19.381-84.872l1.407.236a222.31 222.31 0 01-.624 8.719zm9.02 144.679c-27.856 44.239-61.652 75.849-95.163 89.005l-.677-1.241c33.278-13.065 66.876-44.512 94.605-88.55l1.235.786z" fill="#F2F2F2"/><path d="M347.394 95.315c-2.265 24.911-8.718 51.178-18.837 76.523-12.514 31.342-29.612 58.948-49.445 79.833l-1.1-.958c19.737-20.785 36.756-48.269 49.218-79.481 11.263-28.206 17.961-57.558 19.381-84.871l1.407.235c-.15 2.884-.358 5.79-.624 8.72z" fill="#F2F2F2"/><path d="M34.669 159.269H16.39a2.59 2.59 0 01-2.526-1.994 2.524 2.524 0 01-.001-1.131 49.533 49.533 0 00-.319-23.255 2.583 2.583 0 011.005-2.718c9.399-6.748 16.8-6.552 22 .583.233.325.39.7.454 1.095a81.06 81.06 0 01.228 25.199 2.579 2.579 0 01-2.563 2.221z" fill="#E6E6E6"/><path d="M29.002 140.998h-6.287a1.313 1.313 0 01-1.311-1.308 1.31 1.31 0 011.31-1.309h6.288a1.31 1.31 0 010 2.617zm0 4.59h-6.287a1.31 1.31 0 01-.927-2.234 1.31 1.31 0 01.927-.383h6.287a1.306 1.306 0 011.308 1.308 1.31 1.31 0 01-1.308 1.309zm0 4.589h-6.287a1.313 1.313 0 01-1.311-1.308 1.31 1.31 0 011.31-1.309h6.288a1.31 1.31 0 010 2.617z" fill="#fff"/><path d="M366.839 240.732h-18.277a2.593 2.593 0 01-2.526-1.995 2.526 2.526 0 01-.001-1.131 49.536 49.536 0 00-.319-23.255 2.584 2.584 0 011.005-2.718c9.399-6.747 16.8-6.551 21.999.583.234.325.39.7.455 1.096a81.068 81.068 0 01.228 25.199 2.584 2.584 0 01-2.564 2.221z" fill="#E6E6E6"/><path d="M361.173 222.461h-6.288a1.31 1.31 0 01-.925-2.233c.245-.246.578-.384.925-.384h6.288a1.31 1.31 0 011.311 1.308 1.312 1.312 0 01-1.311 1.309zm0 4.589h-6.288a1.31 1.31 0 01-.925-2.233c.245-.245.578-.383.925-.384h6.288a1.31 1.31 0 110 2.617zm0 4.59h-6.288a1.31 1.31 0 01-.925-2.233 1.31 1.31 0 01.925-.385h6.288a1.312 1.312 0 011.311 1.309 1.312 1.312 0 01-1.311 1.309z" fill="#fff"/><path d="M436 352.317a.673.673 0 01-.2.484.69.69 0 01-.484.199H.684a.685.685 0 01-.684-.683.68.68 0 01.684-.682h434.632a.672.672 0 01.484.199.672.672 0 01.2.483z" fill="#CCC"/><path d="M114.653 310.519l-1.14-15.827a51.356 51.356 0 00-24.079-5.39c11.742 9.06 10.801 27.168 18.933 39.56a30.83 30.83 0 009.948 9.422 30.88 30.88 0 0013.056 4.187l9.772 5.612a51.514 51.514 0 00-1.457-22.07 51.572 51.572 0 00-10.58-19.433 49.905 49.905 0 00-9.406-8.259c-2.136 6.122-5.047 12.198-5.047 12.198zm206.694 2.295l1.14-15.827a51.357 51.357 0 0124.079-5.391c-11.742 9.061-10.801 27.169-18.933 39.561a30.83 30.83 0 01-9.948 9.422 30.907 30.907 0 01-13.056 4.187l-9.772 5.612a51.514 51.514 0 011.457-22.07 51.584 51.584 0 0110.58-19.434 49.9 49.9 0 019.406-8.258c2.136 6.122 5.047 12.198 5.047 12.198z" fill="#F2F2F2"/><path d="M212.828 134.208c6.03 0 10.919-4.88 10.919-10.9 0-6.02-4.889-10.9-10.919-10.9-6.031 0-10.919 4.88-10.919 10.9 0 6.02 4.888 10.9 10.919 10.9z" fill="#FF9D63"/><path d="M218.433 118.765a.883.883 0 00-1.219 0 36.147 36.147 0 00-6.196 6.318l-1.325-2.558c-.509-.984-1.997-.115-1.488.869l1.937 3.741a.87.87 0 001.171.306.872.872 0 00.318-.306 34.879 34.879 0 016.802-7.153.865.865 0 000-1.217z" fill="#fff"/><path d="M163.97 154.216l-16.466-25.813 19.067-10.193 5.005 19.694 35.26 19.02a7.635 7.635 0 018.108 1.918 7.594 7.594 0 011.507 8.18 7.615 7.615 0 01-6.893 4.672 7.618 7.618 0 01-4.188-1.16 7.612 7.612 0 01-2.873-3.256l-38.527-13.062z" fill="#A0616A"/><path d="M135.474 97.443c-5.173 7.583 13.213 35.145 13.213 35.145.895-1.927 9.457 19.715 10.891 18.437 4.076-3.634 10.456-13.755 14.003-14.206 2.028-.258-4.704-14.617-4.704-14.617s-3.077-8.478-7.252-19.309a19.447 19.447 0 00-5.484-7.994 19.502 19.502 0 00-8.668-4.36s-6.825-.679-11.999 6.904z" fill="#3F3D56"/><path d="M135.727 344.489h7.82l3.72-30.11-11.541.001.001 30.109z" fill="#A0616A"/><path d="M133.732 341.941l2.201-.001 8.594-3.488 4.606 3.488a9.822 9.822 0 016.94 2.87 9.794 9.794 0 012.875 6.927v.318l-25.215.001-.001-10.115z" fill="#2F2E41"/><path d="M172.057 344.489h7.82l3.72-30.11-11.541.001.001 30.109z" fill="#A0616A"/><path d="M170.062 341.941l2.202-.001 8.593-3.488 4.606 3.488a9.822 9.822 0 016.94 2.87 9.794 9.794 0 012.875 6.927v.318l-25.215.001-.001-10.115zm5.38-162.063l-50.864 1.27c-9.66 5.237-9.807 16.574-6.642 30.033 0 0-1.068 8 1.069 10.133 2.137 2.133 3.205 2.133 2.137 5.867-1.069 3.733 4.577 9.831 3.891 10.515-.686.685-2.288 4.418-2.288 4.418l5.342 30.399s3.74 52.799 4.809 53.866c1.068 1.067 2.137 0 1.068 2.667-1.068 2.666-2.137 1.6-1.068 2.666a39.429 39.429 0 012.671 3.2h12.917s.974-5.333.974-5.866c0-.534 1.068-3.734 1.068-4.267 0-.533-.944-1.476-.944-1.476a17.497 17.497 0 01-.658-3.324c0-1.067-3.206-42.132-3.206-42.132l6.411-53.333 15.494 52.266s0 45.866 1.068 46.932c1.069 1.067 1.069.534.535 2.667-.535 2.133-2.672 1.6-1.069 3.2 1.603 1.6 2.137-1.067 1.603 1.6l-.534 2.667 16.027.228s2.138-4.495 1.069-6.095c-1.069-1.6-1.004-1.163.299-3.782 1.304-2.618 1.838-3.151 1.304-3.685-.534-.533-.535-3.37-.535-3.37l-2.671-51.029s-.534-53.865-.534-55.465a5.32 5.32 0 01.444-2.4v-2.171l-2.047-7.696-7.14-18.503z" fill="#2F2E41"/><path d="M144.887 74.3c8.728 0 15.804-7.063 15.804-15.776 0-8.713-7.076-15.776-15.804-15.776-8.728 0-15.804 7.063-15.804 15.776 0 8.713 7.076 15.776 15.804 15.776z" fill="#A0616A"/><path d="M152.789 84.727c3.405 2.02 5.441 5.733 6.61 9.51a89.942 89.942 0 013.88 21.535l1.235 21.881 15.294 46.591c-13.255 11.195-63.077 2.544-63.077 2.544s-1.53-.509 0-2.036c1.529-1.526 3.018-.174 1.488-1.7-1.529-1.527-.475.174.035-1.353s0-.509-.51-1.018c-.509-.509 3.947-5.089 3.947-5.089l-4.078-26.743-5.098-53.944c6.117-7.634 18.421-12.134 18.421-12.134l3.179-5.712 15.895 1.27 2.779 6.398z" fill="#3F3D56"/><path d="M157.915 50.142a7.316 7.316 0 012.602 3.649c.178-2.383.189-4.775.034-7.159-.187-1.675-1.368-2.052-2.736-2.489-1.236-.394-2.633-.84-3.009-2.466-4.968-4.825-13.616-4.581-19.534-2.898-3.257.926-5.131 2.115-5.298 2.812l-.035.144-.132.066c-2.511 1.253-2.999 5.21-2.967 8.308.061 5.837 2.08 12.468 3.218 13.006.06.029.075.017.101-.004 1.713-1.367 3.803.104 4.721.903a16.404 16.404 0 014.953-9.493 16.452 16.452 0 019.764-4.424 25.862 25.862 0 003.548-.594 7.477 7.477 0 011.812-.237 5.164 5.164 0 012.958.877z" fill="#2F2E41"/><path d="M256.023 192.449l30.401-30.817 8.009-24.647-12.889-5.205c-6.385 6.43-12.958 26.111-12.958 26.111l-20.749 27.8a5.968 5.968 0 00-.494.203 6.138 6.138 0 00-3.487 4.912 6.135 6.135 0 008.38 6.328 6.141 6.141 0 003.787-4.685z" fill="#FFB8B8"/><path d="M278.028 134.6l16.3 4.707.061-.012c5.991-1.161 10.731-11.101 13.651-19.234a11.22 11.22 0 00-.267-8.245 11.25 11.25 0 00-5.833-5.844 11.307 11.307 0 00-11.778 1.793l-8.127 6.986-4.007 19.849z" fill="#FF9D63"/><path d="M264.082 343.574l-8.766-.001-4.17-33.752h12.937l-.001 33.753z" fill="#FFB8B8"/><path d="M266.318 340.717l-2.467-.001-9.633-3.91-5.163 3.91h-.001a11.009 11.009 0 00-7.779 3.217 10.971 10.971 0 00-3.223 7.765v.357l28.266.001v-11.339z" fill="#2F2E41"/><path d="M302.979 343.574l-8.767-.001-4.17-33.752h12.938l-.001 33.753z" fill="#FFB8B8"/><path d="M305.215 340.717l-2.468-.001-9.633-3.91-5.163 3.91h-.001a11.01 11.01 0 00-7.779 3.217 10.97 10.97 0 00-3.222 7.765v.357l28.265.001.001-11.339zm11.131-142.528s1.023 12.261-1.536 24.012c-2.559 11.751-2.559 44.845-2.559 44.845l-5.63 64.488-16.889-1.533-4.606-107.8-16.378 36.274 1.536 5.109-2.046 1.277s1.534 9.963.51 9.963c-1.023 0-3.582 1.532-3.582 1.532l2.047 52.623-17.401-.511-6.142-74.08 6.653-42.405.512-8.174 2.303.094 1.173-3.415 2.154-5.876 59.881 3.577z" fill="#2F2E41"/><path d="M317.23 200.764l.091-.128c4.872-6.808-2.455-23.168-3.56-25.54l4.654-1.508-1.048-8.893-.496-3.965 3.557-3.551.01-.089 2.047-17.881 2.977-11.877a26.022 26.022 0 00-.277-13.637 26.063 26.063 0 00-7.137-11.632l-6.88-6.476-8.362-12.35h-13.484l-4.624 8.717a19.659 19.659 0 00-11.238 7.266 19.592 19.592 0 00-3.968 12.765l1.048 22.864-4.102 28.468-.003 5.151-4.616 5.122 1.008 5.031-3.514 1.503-1.551 7.227c-.642.846-4.88 6.486-4.88 8.028 0 .231.172.455.539.703 2.888 1.952 18.85 5.932 25.914 3.11 7.525-3.003 37.438 1.502 37.74 1.548l.155.024z" fill="#FF9D63"/><path d="M294.322 79.25c9.863 0 17.858-7.982 17.858-17.828 0-9.845-7.995-17.826-17.858-17.826s-17.858 7.981-17.858 17.827c0 9.845 7.995 17.826 17.858 17.826z" fill="#FFB8B8"/><path d="M292.611 79.538a48.654 48.654 0 008.245-.79c2.693-.619 8.636-5.206 10.255-7.916 1.204-2.013 1.926-5.127 2.32-7.385a21.647 21.647 0 00-4.241-17.102 6.858 6.858 0 00-2.831-2.289 3.356 3.356 0 00-.307-.094 8.47 8.47 0 01-4.276-2.491 6.947 6.947 0 00-.718-.701 10.431 10.431 0 00-4.404-2.068c-2.603-.623-6.325.158-11.065 2.326-2.381 1.09-5.023.786-7.06.4a.665.665 0 00-.619.229 4.684 4.684 0 01-3.147 1.347c-.723.05-1.457 1.07-2.342 2.4-.2.3-.434.653-.604.868l-.034-.404-.398.462a5.655 5.655 0 00-1.129 5.354 5.674 5.674 0 003.931 3.813 11.02 11.02 0 002.236.297c.457.03.929.06 1.383.126a8.552 8.552 0 016.505 5.381 2.23 2.23 0 001.457 1.337 2.242 2.242 0 001.95-.339 3.701 3.701 0 013.354-.7c.5.261.894.685 1.117 1.202.27.574.706 1.056 1.251 1.382 1.859.897 2.094 5.078 1.525 8.582-.548 3.378-1.741 5.842-2.9 5.992-.893.116-.994.182-1.055.342l-.054.143.104.13a3.665 3.665 0 001.551.166z" fill="#2F2E41"/><path d="M277.795 136.506l-8.584-10.918c-8.744 2.404-24.258 16.208-24.258 16.208l-31.862 13.803a6.148 6.148 0 00-5.754 2.145 6.132 6.132 0 00-1.318 2.889 6.13 6.13 0 00.307 3.16 6.134 6.134 0 004.745 3.894 6.139 6.139 0 005.749-2.16l41.738-11.624 19.237-17.397z" fill="#FFB8B8"/><path d="M275.738 139.003l13.544-15.072.752-10.68a11.251 11.251 0 00-5.602-10.497 11.274 11.274 0 00-14.96 3.54c-4.786 7.2-9.934 16.935-7.285 22.423l.027.056 13.524 10.23z" fill="#FF9D63"/><path d="M150.902 195.653L115.7 177.656c-2.504-1.28-3.334-4.675-1.849-7.569l22.952-44.737c1.485-2.894 4.73-4.206 7.234-2.926l35.202 17.997c2.504 1.28 3.333 4.675 1.849 7.569l-22.953 44.737c-1.484 2.894-4.729 4.206-7.233 2.926z" fill="#E6E6E6"/><path d="M144.887 187.38l-23.917-12.228c-2.345-1.198-3.122-4.378-1.732-7.088l19.069-37.168c1.39-2.709 4.429-3.939 6.775-2.74l28.886 14.769c2.345 1.199 3.122 4.378 1.732 7.088l-10.359 20.192c-6.193 12.07-10.008 22.515-20.454 17.175z" fill="#fff"/><path d="M156.712 167.083l-21.184-10.83a1.325 1.325 0 01-.41-1.68 1.327 1.327 0 011.605-.65l21.184 10.83a1.32 1.32 0 01-.271 2.303c-.295.12-.623.129-.924.027zm-18.711-3.756l-4.834-2.472a1.318 1.318 0 01-.41-1.68 1.33 1.33 0 011.605-.65l4.834 2.472a1.325 1.325 0 01.411 1.68 1.33 1.33 0 01-1.606.65zm6.201 8.979l-13.396-6.849a1.325 1.325 0 01-.411-1.68 1.326 1.326 0 011.606-.649l13.396 6.849a1.325 1.325 0 01.411 1.68 1.326 1.326 0 01-1.606.649zm20.893-21.563l-21.184-10.83a1.318 1.318 0 01-.41-1.68 1.327 1.327 0 011.605-.649l21.184 10.83a1.318 1.318 0 01.41 1.68 1.32 1.32 0 01-1.605.649zm-18.711-3.756l-4.834-2.472a1.324 1.324 0 011.195-2.329l4.834 2.472a1.324 1.324 0 01-1.195 2.329zm6.202 8.98l-13.397-6.849a1.325 1.325 0 01-.411-1.68 1.324 1.324 0 011.606-.65l13.397 6.849a1.322 1.322 0 01-.272 2.303 1.327 1.327 0 01-.923.027z" fill="#FF9D63"/><path d="M121.731 156.705l-7.953-29.555 21.252-4.015-1.143 20.286 27.923 28.7a7.636 7.636 0 014.213 1.066 7.614 7.614 0 013.665 7.47 7.602 7.602 0 01-1.739 3.976 7.635 7.635 0 01-11.627.033 7.61 7.61 0 01-1.762-3.966l-32.829-23.995z" fill="#A0616A"/><path d="M111.604 94.014c-7.214 5.685 2.045 37.483 2.045 37.483 1.433-1.571 3.099 21.639 4.851 20.848 4.98-2.246 14.107-9.991 17.626-9.36 2.012.361-.096-15.351-.096-15.351s-.388-9.01-1.117-20.592a19.43 19.43 0 00-2.83-9.268 19.475 19.475 0 00-6.959-6.755s-6.307-2.69-13.52 2.995z" fill="#3F3D56"/><path d="M231.631 222.303l-19.21-9.055a3.001 3.001 0 01-1.649-2.033 2.934 2.934 0 01.547-2.504 57.658 57.658 0 0011.156-24.24 2.982 2.982 0 012.927-2.404c9.797.033 17.119 3.604 21.762 10.613a3.02 3.02 0 01.396 2.51 94.343 94.343 0 01-12.131 26.049 3 3 0 01-3.798 1.064z" fill="#E6E6E6"/><path d="M237.282 209.603l-14.688-6.924a1.518 1.518 0 01-.727-2.025 1.523 1.523 0 012.028-.725l14.688 6.923c.181.085.343.206.478.353a1.524 1.524 0 01-1.779 2.398zm2.282-4.824l-14.688-6.923a1.519 1.519 0 01.136-2.807c.381-.137.8-.116 1.165.056l14.688 6.924a1.518 1.518 0 01.727 2.024 1.521 1.521 0 01-2.028.726z" fill="#fff"/><path d="M219.938 53.36l-1.368.15c-6.096-23.913-17.912-40.48-34.172-47.91-20.67-9.445-46.23-3.102-71.97 17.859-25.872 21.068-48.775 54.346-64.49 93.706l-1.327-.606c15.784-39.532 38.805-72.971 64.821-94.156 26.148-21.292 52.229-27.681 73.44-17.99 16.726 7.643 28.851 24.57 35.066 48.948z" fill="#F2F2F2"/><path d="M69.096 84.505a396.492 396.492 0 00-10.108 23.153c-18.023 45.138-27.156 91.236-26.41 133.313l-1.408-.15c-.747-42.233 8.412-88.49 26.491-133.769a397.56 397.56 0 0110.137-23.218l1.298.671z" fill="#F2F2F2"/><path d="M68.42 115.52a396.514 396.514 0 00-10.108 23.153c-18.023 45.138-27.156 91.236-26.41 133.313l-1.408-.15c-.747-42.233 8.412-88.49 26.491-133.769a397.637 397.637 0 0110.138-23.218l1.297.671z" fill="#F2F2F2"/><path d="M30.561 126.8c1.557-2.336.636-5.681-2.058-7.47-2.694-1.789-6.14-1.345-7.697.991-1.557 2.336-.636 5.681 2.058 7.47 2.694 1.789 6.14 1.345 7.697-.991zm331.563 84.371c1.557-2.337.636-5.681-2.058-7.47-2.694-1.789-6.14-1.346-7.697.99-1.557 2.337-.636 5.681 2.058 7.47 2.694 1.789 6.14 1.346 7.697-.99z" fill="#CCC"/></g><defs><clipPath id="clip0_56:76"><path fill="#fff" d="M0 0h436v353H0z"/></clipPath></defs></svg>