<svg width="483" height="388" fill="none" xmlns="http://www.w3.org/2000/svg"><g clip-path="url(#clip0_58:392)"><path d="M3.578 224.911h368.79a3.584 3.584 0 003.578-3.574V3.574a3.574 3.574 0 00-1.049-2.526A3.584 3.584 0 00372.368 0H3.578A3.584 3.584 0 001.05 1.048 3.575 3.575 0 000 3.574v217.763a3.575 3.575 0 001.05 2.526c.67.67 1.58 1.047 2.528 1.048zM372.368 1.43a2.148 2.148 0 012.147 2.144v217.763a2.149 2.149 0 01-2.147 2.145H3.578a2.152 2.152 0 01-2.147-2.145V3.574A2.145 2.145 0 013.578 1.43h368.79z" fill="#E6E6E6"/><path d="M223.522 17.392a2.838 2.838 0 012.79 2.833 2.839 2.839 0 01-2.79 2.833h-71.127a2.838 2.838 0 01-2.879-2.782 2.832 2.832 0 012.777-2.884h71.229z" fill="#3F3D56"/><path d="M136.265 16.603a.56.56 0 010 .788l-2.397 2.394h5.909a.558.558 0 010 1.115h-5.909l2.397 2.393a.57.57 0 01.163.394.558.558 0 01-.953.395l-3.349-3.346a.557.557 0 010-.788l3.349-3.345a.568.568 0 01.395-.164.554.554 0 01.395.164zm103.417 0a.556.556 0 000 .788l2.396 2.394h-5.909a.557.557 0 10-.001 1.115h5.91l-2.396 2.393a.554.554 0 00-.121.608.555.555 0 00.515.344.558.558 0 00.395-.163l3.349-3.346a.557.557 0 000-.788l-3.349-3.345a.56.56 0 00-.789 0z" fill="#E6E6E6"/><path d="M376.16 236.906c3.234 0 6.395-.958 9.084-2.752a16.328 16.328 0 006.953-16.765 16.332 16.332 0 00-4.475-8.362 16.374 16.374 0 00-17.82-3.54 16.322 16.322 0 00-5.304 26.636 16.358 16.358 0 0011.562 4.783z" fill="#74FF82"/><path d="M369.708 218.964h4.839v-4.833a1.612 1.612 0 012.753-1.139c.303.302.473.712.473 1.139v4.833h4.839a1.614 1.614 0 011.613 1.611 1.61 1.61 0 01-1.613 1.611h-4.839v4.833a1.612 1.612 0 01-3.226 0v-4.833h-4.839c-.428 0-.838-.169-1.14-.472a1.607 1.607 0 010-2.278 1.612 1.612 0 011.14-.472z" fill="#fff"/><path d="M296.988 46.401h49.14v33.356h-49.14V46.4zm-66.793 0h49.14v33.356h-49.14V46.4zm-66.792 0h49.14v33.356h-49.14V46.4zm-66.793 0h49.141v33.356h-49.14V46.4zm-66.792 0h49.14v33.356h-49.14V46.4zm266.99 58.61h49.14v33.356h-49.14v-33.356zm-66.793 0h49.14v33.356h-49.14v-33.356zm-66.792 0h49.14v33.356h-49.14v-33.356zm-66.793 0h49.14v33.356H96.43v-33.356zm-66.792 0h49.14v33.356h-49.14v-33.356zm266.989 58.611h49.141v33.355h-49.141v-33.355zm-66.792 0h49.141v33.355h-49.141v-33.355zm-66.793 0h49.141v33.355h-49.141v-33.355zm-66.792 0h49.141v33.355h-49.14v-33.355zm-66.793 0h49.14v33.355h-49.14v-33.355z" fill="#F1F1F1"/><path d="M202.344 63.079a6.198 6.198 0 01-6.202-6.195 6.198 6.198 0 016.202-6.194 6.198 6.198 0 016.202 6.194 6.198 6.198 0 01-6.202 6.195zm67.747 58.61a6.197 6.197 0 01-6.202-6.194 6.198 6.198 0 016.202-6.195 6.198 6.198 0 016.202 6.195 6.198 6.198 0 01-6.202 6.194zm-67.747 58.61a6.198 6.198 0 01-6.202-6.194 6.199 6.199 0 016.202-6.195 6.198 6.198 0 016.202 6.195 6.197 6.197 0 01-6.202 6.194z" fill="#74FF82"/><path d="M134.121 121.689a6.198 6.198 0 01-6.203-6.194 6.199 6.199 0 016.203-6.195 6.198 6.198 0 016.202 6.195 6.198 6.198 0 01-6.202 6.194zm-66.316 0a6.198 6.198 0 01-6.202-6.194 6.198 6.198 0 016.202-6.195 6.198 6.198 0 016.202 6.195 6.198 6.198 0 01-6.202 6.194zm202.286 58.61a6.197 6.197 0 01-6.202-6.194 6.198 6.198 0 016.202-6.195 6.199 6.199 0 016.202 6.195 6.198 6.198 0 01-6.202 6.194z" fill="#3F3D56"/><path d="M432.707 233.271c-6.362 0-11.52-5.151-11.52-11.506 0-6.354 5.158-11.505 11.52-11.505 6.362 0 11.52 5.151 11.52 11.505 0 6.355-5.158 11.506-11.52 11.506zm4.159 56.574a5.16 5.16 0 005.069-6.163 4.895 4.895 0 00-.127-.49l17.002-20.084a3.998 3.998 0 00.279-4.771l-.031-.037-15.304-15.072a4.426 4.426 0 00-7.527 3.178 4.415 4.415 0 001.316 3.115l.058.056 11.084 10.524-12.135 19.452c-.229.012-.458.04-.684.084a5.15 5.15 0 00-2.46 8.869 5.158 5.158 0 003.46 1.339zm-23.132 92.048h-5.75l-2.735-22.152 8.486.001-.001 22.151z" fill="#FFB8B8"/><path d="M415.201 380.018h-11.325a7.225 7.225 0 00-5.102 2.111 7.2 7.2 0 00-2.114 5.096v.235h18.54l.001-7.442z" fill="#2F2E41"/><path d="M470.887 373.953l-4.941 2.938-13.698-17.635 7.292-4.337 11.347 19.034z" fill="#FFB8B8"/><path d="M471.187 371.592l-9.73 5.786-.001.001a7.203 7.203 0 00-2.508 9.88l.12.201 15.931-9.473-3.812-6.395zm-64.56 2.477h6.439a2.109 2.109 0 002.099-1.885l6.491-60.943a.7.7 0 01.588-.62.708.708 0 01.753.405l11.71 25.898 20.733 33.766a2.117 2.117 0 002.649.827l8.282-3.639a2.12 2.12 0 001.161-1.289 2.113 2.113 0 00-.199-1.723l-19.059-31.873-5.845-26.855c1.838-11.646-6.043-28.961-6.123-29.135l-.039-.084-21.709-8.475-.108.133c-8.562 28.061-13.779 58.259-9.927 103.561a2.128 2.128 0 002.104 1.931z" fill="#2F2E41"/><path d="M437.142 279.756l.101-.212c.048-.102 4.876-10.27 8.597-21.138a16.017 16.017 0 00-1.113-12.847 16.217 16.217 0 00-10.347-7.947 16.263 16.263 0 00-11.235 1.359 16.231 16.231 0 00-7.62 8.358c-2.952 7.372-2.011 15.241-1.126 21.429l.018.124.112.054 22.613 10.82z" fill="#74FF82"/><path d="M418.74 215.266h18.292v-7.964c-4.015-1.593-7.944-2.947-10.319 0a7.979 7.979 0 00-5.638 2.333 7.959 7.959 0 00-2.335 5.631z" fill="#2F2E41"/><path d="M438.044 205.897c10.935 0 13.996 13.69 13.996 21.413 0 4.307-1.95 5.848-5.015 6.369l-1.082-5.765-2.535 6.013c-.861.005-1.765-.012-2.703-.029l-.859-1.768-1.917 1.736c-7.676.011-13.881 1.129-13.881-6.556 0-7.723 2.685-21.413 13.996-21.413z" fill="#2F2E41"/><path d="M389.438 221.219a5.142 5.142 0 00-.174 4.606 5.163 5.163 0 003.16 2.792c.161.049.325.091.491.123l9.495 24.532a4.007 4.007 0 004.058 2.531l.048-.009 20.58-6.188a4.421 4.421 0 002.622-2.14 4.41 4.41 0 00.338-3.364 4.422 4.422 0 00-5.511-2.957l-.077.024-14.561 4.669-11.274-19.961c.1-.208.185-.422.254-.641a5.146 5.146 0 00-2.904-6.28 5.16 5.16 0 00-6.545 2.263z" fill="#FFB8B8"/><path d="M387.052 388h95.451a.492.492 0 00.351-.146.492.492 0 000-.702.496.496 0 00-.351-.145h-95.451a.497.497 0 000 .993z" fill="#CCC"/></g><defs><clipPath id="clip0_58:392"><path fill="#fff" transform="matrix(-1 0 0 1 483 0)" d="M0 0h483v388H0z"/></clipPath></defs></svg>