<svg width="439" height="371" fill="none" xmlns="http://www.w3.org/2000/svg"><g clip-path="url(#clip0_56:198)"><path d="M357.531 179.058c0 5.213-.219 10.374-.657 15.481a183.605 183.605 0 01-1.41 11.853 174.044 174.044 0 01-2.328 12.287v.005a177.606 177.606 0 01-11.815 34.977 176.758 176.758 0 01-9.059 17.225 179.713 179.713 0 01-39.087 45.762 177.848 177.848 0 01-114.41 41.468C80.035 358.116 0 277.95 0 179.058S80.035 0 178.765 0a177.792 177.792 0 01111.156 38.82 166.927 166.927 0 014.386 3.603 180.183 180.183 0 0119.659 19.492h.005a178.53 178.53 0 0143.56 117.143z" fill="#F2F2F2"/><path d="M52.772 209.988c-17.03-10.152-29.883-29.125-28.214-48.904a91.235 91.235 0 0057.415 25.205c8.297.492 17.576.173 23.684 5.819 3.8 3.513 5.569 8.803 5.859 13.974.29 5.172-.744 10.317-1.773 15.393l.354 1.244c-19.817.074-40.296-2.579-57.325-12.731z" fill="#E6E6E6"/><path d="M24.973 161.063a78.122 78.122 0 0032.438 35.461c3.066 1.719 6.326 3.196 9.79 3.881 3.383.642 6.875.365 10.114-.803 3.041-1.027 6.034-2.431 9.273-2.7 3.413-.283 6.573 1.036 9.055 3.346 3.038 2.826 4.881 6.578 6.555 10.309 1.859 4.143 3.725 8.475 7.29 11.455.432.361-.153 1.011-.584.65-6.202-5.183-7.214-13.864-12.172-19.968-2.313-2.849-5.498-5.016-9.28-4.959-3.309.05-6.396 1.495-9.467 2.562-3.224 1.121-6.455 1.647-9.859 1.154-3.482-.504-6.807-1.857-9.904-3.49a75.719 75.719 0 01-18.853-14.326 79.558 79.558 0 01-15.228-22.306c-.233-.51.6-.774.832-.266z" fill="#fff"/><path d="M52.664 194.183a11.692 11.692 0 01-14.812 3.243c-.496-.266-.106-1.049.39-.783a10.818 10.818 0 007.448 1.027 10.84 10.84 0 006.324-4.072c.339-.449.986.138.65.585zm23.176 6.144a22.615 22.615 0 00-7.857-14.472c-.43-.363.154-1.013.584-.651a23.525 23.525 0 018.146 15.076c.069.56-.804.604-.872.047zm-41.697-23.613a6.641 6.641 0 002.23-5.891c-.076-.558.796-.601.872-.046a7.45 7.45 0 01-2.453 6.521.45.45 0 01-.616.033.437.437 0 01-.033-.617z" fill="#fff"/><path d="M79.68 122.765c.057.347.115.695.178 1.045a87.535 87.535 0 003.5 13.742c.113.349.233.7.356 1.044a92.212 92.212 0 0017.031 29.334 89.496 89.496 0 009.634 9.583c4.764 4.067 10.252 8.097 13.306 13.348.325.544.616 1.108.871 1.689l-12.972 29.639c-.063.053-.12.109-.183.162l-.464 1.207c-.189-.14-.381-.288-.57-.428-.11-.08-.216-.167-.326-.248-.072-.055-.144-.111-.213-.158a1.133 1.133 0 01-.065-.052c-.068-.046-.127-.097-.189-.14a300.752 300.752 0 01-3.223-2.511c-.006-.003-.006-.003-.01-.013-8.14-6.468-15.812-13.674-22.148-21.817-.19-.245-.388-.493-.572-.752a85.412 85.412 0 01-7.565-11.698 75.495 75.495 0 01-3.244-6.915 62.869 62.869 0 01-4.464-19.115c-.951-13.091 2.288-26.341 10.683-36.2.215-.252.428-.497.65-.746z" fill="#E6E6E6"/><path d="M80.027 122.996a78.29 78.29 0 004.584 47.876c1.415 3.222 3.13 6.367 5.485 9.003a19.27 19.27 0 008.557 5.458c3.047 1.014 6.28 1.698 9.027 3.436 2.896 1.832 4.626 4.791 5.22 8.132.726 4.089-.058 8.196-.963 12.185-1.006 4.429-2.121 9.013-1.065 13.542.128.548-.73.715-.858.167-1.836-7.879 2.574-15.42 2.285-23.284-.135-3.669-1.375-7.32-4.43-9.556-2.671-1.955-6.005-2.663-9.098-3.663-3.248-1.05-6.144-2.578-8.566-5.024-2.477-2.503-4.319-5.588-5.81-8.759a75.948 75.948 0 01-6.442-22.808 79.69 79.69 0 011.25-26.994c.12-.548.944-.256.824.289z" fill="#fff"/><path d="M82.229 166.14a11.697 11.697 0 01-13.777-6.343c-.235-.511.547-.901.783-.389a10.852 10.852 0 005.33 5.311 10.827 10.827 0 007.496.562c.54-.154.705.705.168.859zm14.811 18.883a22.64 22.64 0 002.426-16.294c-.126-.549.731-.716.857-.168a23.548 23.548 0 01-2.558 16.95c-.281.489-1.004-.003-.724-.488zm-19.098-44a6.626 6.626 0 005.32-3.359c.276-.491.998.001.725.489a7.434 7.434 0 01-5.878 3.728.448.448 0 01-.512-.345.44.44 0 01.345-.513z" fill="#fff"/><path d="M123.832 41.5l21.88 256.554-43.76 3.295V44.765c5.215-3.456 12.7-3.997 21.88-3.264zm108.004 0l-21.88 256.554 43.76 3.295V44.765c-5.214-3.456-12.699-3.997-21.88-3.264z" fill="#CCC"/><path d="M247.164 311.953H108.039a8.418 8.418 0 01-5.947-2.471 8.445 8.445 0 01-2.468-5.957V48.53a8.443 8.443 0 012.468-5.957 8.416 8.416 0 015.947-2.471h139.125a8.416 8.416 0 015.947 2.471 8.445 8.445 0 012.468 5.957v254.995a8.448 8.448 0 01-2.468 5.957 8.418 8.418 0 01-5.947 2.471zM108.039 42.899a5.624 5.624 0 00-3.973 1.651 5.638 5.638 0 00-1.648 3.98v254.995a5.637 5.637 0 001.648 3.979 5.62 5.62 0 003.973 1.651h139.125a5.617 5.617 0 003.973-1.651 5.642 5.642 0 001.649-3.979V48.53a5.643 5.643 0 00-1.649-3.98 5.622 5.622 0 00-3.973-1.65H108.039z" fill="#CCC"/><path d="M254.182 82.535H101.021v2.797h153.161v-2.797zm0 46.629H101.021v2.798h153.161v-2.798z" fill="#CCC"/><path d="M150.723 41.5h-2.793v127.3h2.793V41.5zm56.55 0h-2.793v127.3h2.793V41.5zm64.367 278.147H88.219a12.56 12.56 0 01-8.888-3.688 12.602 12.602 0 010-17.805 12.559 12.559 0 018.888-3.687H271.64c3.333 0 6.53 1.326 8.888 3.687a12.602 12.602 0 010 17.805 12.562 12.562 0 01-8.888 3.688z" fill="#CCC"/><path d="M254.182 162.271h-152.23v9.326h152.23v-9.326z" fill="#CCC"/><path d="M151.157 191.952l-.194-.094c-10.377-5.021-23.967-5.016-44.064.017l-.215.053-.064-.212c-2.126-6.982-4.534-14.891-.01-18.781.063-11.418 10.062-20.689 22.344-20.689 12.279 0 22.276 9.266 22.343 20.681 6.731 5.154 3.523 12.771-.032 18.839l-.108.186z" fill="#2F2E41"/><path d="M214.94 167.503a6.457 6.457 0 01-3.237 4.396 6.44 6.44 0 01-5.443.336l-36.674 36.914-3.272-11.462 36.424-34.28a6.47 6.47 0 017.917-3.38 6.472 6.472 0 013.561 2.922 6.496 6.496 0 01.724 4.554z" fill="#FFB6B6"/><path d="M124.302 203.041s-3.328 7.553 4.882 12.21c8.21 4.658 36.905-1.777 41.56-2.676 4.656-.898 22.046-26.964 22.046-26.964l-2.459-12.784-23.063 20.053-42.966 10.161z" fill="#71BBFF"/><path d="M118.246 244.806l.465 8.86s-1.374 7.848-.244 9.542c1.122 1.685 31.727 1.897 31.727 1.897s2.022-10.919 3.764-20.476l-35.712.177zm87.992 117.144l6.399-1.295-1.832-25.886-9.443 1.911 4.876 25.27zm9.166-33.687l5.948-2.679-7.717-24.768-8.779 3.955 10.548 23.492z" fill="#FFB6B6"/><path d="M220.585 314.308l-11.2 6.352-27.621-44.458c-19.39 13.085-38.352 19.351-57.466 22.695-6.463 1.152-13.052.568-14.292-6.02a12.168 12.168 0 01-.139-.929c-.763-7.197 8.174-16.421 9.31-25.226l24.459-1.471 3.017 3.874 28.286-17.419c5.689-3.503 13.17-1.608 16.711 4.232.187.308.361.624.521.948l28.414 57.422z" fill="#2F2E41"/><path d="M213.73 344.215l-12.815 1.193-23.237-47.6c-23.042 3.969-44.78 5.241-63.582.439-6.366-1.603-10.257-8.188-8.692-14.706.074-.305.158-.606.254-.905 2.251-6.876 8.141-11.742 12.782-19.306l33.899.516-3.787 13.085 32.931-4.268c6.622-.859 12.67 3.943 13.509 10.724.044.358.073.717.086 1.078l18.652 59.75z" fill="#2F2E41"/><path d="M131.482 185.184c7.602 0 13.765-6.173 13.765-13.787 0-7.615-6.163-13.788-13.765-13.788s-13.765 6.173-13.765 13.788c0 7.614 6.163 13.787 13.765 13.787z" fill="#FFB6B6"/><path d="M123.412 190.161l12.621 1.488a2.57 2.57 0 011.429.65c.397.361.672.837.787 1.361l2.007 9.2 12.512 14.758s4.493 8.438 2.808 18.001c-1.685 9.564-2.425 16.669-2.425 16.669s-33.564 12.605-34.687 10.918c-1.123-1.688-1.488-9.353-1.488-9.353l-4.493-50.066s5.055-8.439 7.863-8.439c1.812-.061 1.58-4.146 3.066-5.187z" fill="#71BBFF"/><path d="M153.492 255.367c1.77 0 3.204-1.725 3.204-3.852 0-2.128-1.434-3.852-3.204-3.852-1.77 0-3.205 1.724-3.205 3.852 0 2.127 1.435 3.852 3.205 3.852z" fill="#71BBFF"/><path d="M203.063 355.285l9.755-4.897 1.839 4.296 12.335 2.498a2.913 2.913 0 012.322 2.562 2.925 2.925 0 01-1.751 2.983l-11.918 5.117-3.873-3.367 1.016 4.594-4.493 1.929-5.232-15.715zm9.549-29.083l9.667-5.067 1.914 4.263 12.377 2.28a2.913 2.913 0 012.366 2.52 2.916 2.916 0 01-1.698 3.014l-11.827 5.326-3.931-3.299 1.097 4.576-4.459 2.008-5.506-15.621zm-88.994-159.13a17.59 17.59 0 01-10.161-3.211l-.099-.069v-.122a13.315 13.315 0 013.89-9.392 13.272 13.272 0 019.378-3.897h5.586a13.268 13.268 0 019.377 3.897 13.312 13.312 0 013.891 9.392 3.09 3.09 0 01-3.022 3.08l-18.526.319-.314.003z" fill="#2F2E41"/><path d="M146.411 161.118c1.781-1.03 2.079-3.854.665-6.307-1.415-2.454-4.005-3.607-5.786-2.577-1.782 1.03-2.079 3.854-.665 6.307 1.414 2.453 4.004 3.607 5.786 2.577zm-27.859-2.737c1.999-2.003 2.441-4.808.987-6.265-1.454-1.456-4.255-1.014-6.254.99-2 2.003-2.442 4.808-.988 6.264 1.454 1.457 4.255 1.014 6.255-.989z" fill="#2F2E41"/><path d="M240.374 284.441h-13.739a2.126 2.126 0 00-1.629.755 3.241 3.241 0 00-1.522.083 3.267 3.267 0 00.874 6.39 3.25 3.25 0 001.488-.331l1.14 3.709a2.149 2.149 0 002.052 1.518h8.933a2.147 2.147 0 002.051-1.518l2.404-7.823a2.158 2.158 0 00-1.085-2.552 2.139 2.139 0 00-.967-.231zm-15.948 6.295a2.328 2.328 0 01-2.327-2.331 2.328 2.328 0 012.327-2.332c.043 0 .082.011.124.013-.092.375-.081.769.033 1.138l.983 3.201a2.283 2.283 0 01-1.14.311z" fill="#3F3D56"/><path d="M179.023 274.319a6.43 6.43 0 01-5.133-1.845 6.466 6.466 0 01-1.883-5.126L126.18 242.75l10.024-6.429 43.235 25.114a6.486 6.486 0 015.505 6.628 6.49 6.49 0 01-5.921 6.256z" fill="#FFB6B6"/><path d="M119.029 197.545s-8.178-1.025-10.277 8.189c-2.098 9.214 12.289 34.9 14.484 39.11 2.195 4.21 32.114 13.416 32.114 13.416l11.52-6.027-25.795-16.375-22.046-38.313z" fill="#71BBFF"/><path d="M176.671 159.474h2.793c1.358 0 2.661.54 3.621 1.502s1.5 2.267 1.5 3.627H171.55c0-1.36.539-2.665 1.5-3.627a5.116 5.116 0 013.621-1.502z" fill="#CCC"/><path d="M88.099 63.773c15.283 0 27.672-12.41 27.672-27.717 0-15.308-12.389-27.718-27.672-27.718-15.283 0-27.673 12.41-27.673 27.718s12.39 27.717 27.672 27.717z" fill="#FF6584"/><path d="M172.825 34.611c-7.324-7.695-15.829-14.715-25.898-18.424a41.57 41.57 0 00-8.674-2.184c-.024-.003-.046.002-.07 0a1.277 1.277 0 00-.146-.029 33.34 33.34 0 00-12.394.75 34.205 34.205 0 00-5.771 2.013 50.455 50.455 0 00-5.414 3.074 35.193 35.193 0 01-11.966 4.471c-2.122.383-4.27.594-6.426.632-1.87.038-3.635.103-5.407.78a12.976 12.976 0 00-4.965 3.347 13.003 13.003 0 00-2.938 5.223.844.844 0 00.374.921c.48.344.947.734 1.45 1.04.449.206.927.337 1.417.388a199.052 199.052 0 0011.314 2.051c6.035.915 12.101 1.56 18.201 1.934a202.32 202.32 0 0036.63-1.103 203.009 203.009 0 0020.323-3.521.817.817 0 00.564-.58.83.83 0 00-.204-.783zM89.412 53.144a41.568 41.568 0 00-8.674-2.184c-.024-.003-.047.002-.07 0a1.282 1.282 0 00-.147-.029 33.338 33.338 0 00-12.393.75 34.207 34.207 0 00-5.77 2.013 50.436 50.436 0 00-5.415 3.074 35.185 35.185 0 01-11.966 4.471c-2.122.383-4.27.594-6.426.632-1.87.037-3.635.102-5.407.78a12.976 12.976 0 00-4.965 3.347 13.003 13.003 0 00-2.938 5.223.843.843 0 00.374.92c.48.345.947.735 1.45 1.041a4.52 4.52 0 001.417.387 197.05 197.05 0 0011.315 2.052 202.317 202.317 0 0054.83.83 202.986 202.986 0 0020.323-3.52.822.822 0 00.359-1.363c-7.323-7.695-15.828-14.715-25.897-18.424z" fill="#E6E6E6"/><path d="M288.968 259.774l-21.28-28.002-16.791 9.51 35.581 42.322 2.49-23.83z" fill="#3F3D56"/><path d="M337.988 214.254a153.764 153.764 0 005.409 34.698c-.67 1.58-1.362 3.15-2.076 4.709a176.54 176.54 0 01-9.059 17.225 179.713 179.713 0 01-34.613 41.897 196.4 196.4 0 01-4.474 3.866c-8.617-11.9-13.267-25.031-15.106-38.545-.233-1.716-.424-3.45-.568-5.175v-.01a110.526 110.526 0 01-.34-12.608c.005-.336.014-.677.028-1.017.163-4.495.568-9 1.178-13.462v-.005c.07-.513.139-1.026.219-1.538.223-1.539.474-3.078.749-4.607a186.976 186.976 0 016.676-26.015v-.005c.079-.247.158-.489.247-.732.307-.923.619-1.837.94-2.751.02-.072.045-.142.074-.21a203.295 203.295 0 011.634-4.532c.489-1.311.987-2.612 1.495-3.894.158-.41.321-.821.484-1.226.126-.313.247-.625.377-.933v-.005c.74-1.832 1.49-3.629 2.249-5.39a278.587 278.587 0 016.447-13.905l.005-.005c8.85-17.78 16.894-29.325 16.894-29.325l30.209 9.792c-3.604 6.402-6.392 15.845-7.919 26.985a150.954 150.954 0 00-1.159 26.719v.004z" fill="#3F3D56"/><path d="M287.78 211.405c-.177-.415-.377-.82-.582-1.226a22.962 22.962 0 00-4.055-5.596 16.205 16.205 0 00-.754-.727 22.65 22.65 0 00-21.173-5.251l-.018.01-.14.037.032.159c.14.738.343 1.464.606 2.168.07.191.149.373.228.555.032.084.074.158.112.242 0 0-.005.005.004.005 0 .004.005.009.005.014.088.172.172.35.265.517a12.043 12.043 0 01-.549-.559 10.983 10.983 0 01-.489-.55 15.398 15.398 0 01-1.466-2.024l-.075-.126-.13.051a22.867 22.867 0 00-4.991 2.448l-.167.112a10.134 10.134 0 01-8.152 1.334 16.143 16.143 0 00-12.844 2.103 15.99 15.99 0 00-3.343 2.919c-.083.098-.167.2-.251.298-.177.215-.344.434-.507.658a16.003 16.003 0 00-3.106 8.034l-.009.107.089.061a13.824 13.824 0 005.232 2.182 15.61 15.61 0 01-3.556.089h-.005a14.42 14.42 0 01-1.602-.224l-.097-.019h-.005l-.121-.023.019.224a16.057 16.057 0 002.593 7.997l.046.065a16.78 16.78 0 011.685 3.297 15.361 15.361 0 01.689 8.818 16.106 16.106 0 00.69 9.45 16.076 16.076 0 005.884 7.42 15.943 15.943 0 007.891 2.775c.386.032.777.051 1.168.051a16.023 16.023 0 006.504-1.357l.074-.028.019-.084a15.811 15.811 0 011.648-3.628 11.04 11.04 0 00-.345 2.738v.307l.266-.154a16.375 16.375 0 004.054-3.362 40.61 40.61 0 011.188-1.315l.004-.004a43.489 43.489 0 012.514-2.472 47.002 47.002 0 015.959-4.555 51.155 51.155 0 016.578-3.581h.005c.256-.122.516-.238.772-.35a22.762 22.762 0 003.264-1.753c.037-.024.07-.042.102-.066a22.746 22.746 0 009.337-12.573 22.794 22.794 0 00-.994-15.638z" fill="#71BBFF"/><path opacity=".15" d="M231.965 246.204a16.118 16.118 0 00-.288 1.718 16.313 16.313 0 01-.364-8.476c.097-.429.17-.864.227-1.301.86 2.6 1.007 5.383.425 8.059zm.353-20.227a15.604 15.604 0 01-4.158.02 16.054 16.054 0 01-.934-2.119 13.618 13.618 0 005.092 2.099zm-4.269-6.678a16.23 16.23 0 00-1.006 4.059 16.017 16.017 0 01-.746-4.088l-.011-.224.219.042c.511.096 1.026.167 1.544.211zm5.518-14.337a16.095 16.095 0 0112.837-2.105 10.126 10.126 0 008.156-1.332l.168-.111a22.867 22.867 0 014.988-2.454l.134-.046.073.121a15.433 15.433 0 002.503 3.136 11.855 11.855 0 01-1.219-3.502l-.031-.161.158-.042a22.645 22.645 0 0120.113 4.336 22.717 22.717 0 016.425 8.418 22.753 22.753 0 011.914 10.421 22.738 22.738 0 00-3.835-8.064 22.694 22.694 0 00-15.063-8.896 22.644 22.644 0 00-8.901.543l-.159.042.032.161c.22 1.224.631 2.406 1.218 3.502a15.394 15.394 0 01-2.502-3.136l-.074-.121-.134.046a22.867 22.867 0 00-4.988 2.454l-.168.111a10.12 10.12 0 01-8.156 1.332 16.06 16.06 0 00-10.799.974 16.1 16.1 0 00-7.729 7.618 19.568 19.568 0 01-2.092-1.171l-.091-.058.011-.107a16.068 16.068 0 017.211-11.909z" fill="#000"/><path d="M406.636 85.817l-.442-.293-.322.42a38.167 38.167 0 00-5.861 10.393c.193-4.321.947-8.6 2.244-12.725l.14-.434-.401-.228a73.316 73.316 0 00-16.526-6.864l-.629-.168a32.604 32.604 0 01-12.077-6.265 32.668 32.668 0 01-8.476-10.652 51.889 51.889 0 00-21.539-22.22 51.773 51.773 0 00-30.336-5.987h-.004c-.112.01-.228.024-.34.038-.191.018-.377.041-.563.065-.382.051-.754.102-1.127.158-.316.047-.638.098-.954.154a8.366 8.366 0 00-.494.084c-.163.028-.33.056-.493.089h-.005a51.233 51.233 0 00-9.152 2.634h-.005v.005l-.749.294a53.74 53.74 0 00-2.3 1.007c-.172.08-.34.163-.512.242-.047.024-.098.047-.145.075-.488.233-.973.476-1.452.732-.07.033-.14.07-.21.107l-.446.238a50.673 50.673 0 00-2.896 1.693 6.274 6.274 0 00-.233.144l-.256.168c-.051.028-.102.066-.154.098a8.156 8.156 0 00-.423.28c-.279.182-.559.368-.833.56-.284.19-.564.391-.843.592l-.279.2.051.345c.046.285.088.57.139.849.047.28.094.555.145.83.079.462.167.919.256 1.362.06.293.116.582.181.867.061.294.126.587.196.881.135.606.279 1.194.433 1.772.074.29.154.578.237.863.047.172.093.345.145.513l.111.35c.01.037.019.079.033.12.01.04.023.08.037.117.051.173.103.34.154.504.028.088.056.177.088.261.065.2.135.406.205.602.075.223.154.447.233.666.018.056.037.108.056.163.014.043.028.084.046.126l.056.145c.079.21.158.424.242.634.028.075.056.154.089.229a33.376 33.376 0 002.77 5.455 50.323 50.323 0 01-3.483-3.292 50.285 50.285 0 01-4.748-5.74 11.615 11.615 0 01-.34-.485 39.911 39.911 0 01-.642-.942 26.895 26.895 0 01-.647-1.002 49.23 49.23 0 01-.415-.676c-.135-.215-.26-.425-.381-.64l-.364-.624h-.004v.005l-.512.503A51.847 51.847 0 00268.139 68.5l-.07.257-.07.265c-.135.476-.27.938-.414 1.409v.004c-.14.466-.288.933-.447 1.39-.144.433-.293.862-.451 1.291a8.59 8.59 0 01-.168.434c-.098.28-.205.555-.312.835l-.153.382c-.126.308-.252.616-.378.919a1.53 1.53 0 01-.065.144c-.037.094-.079.187-.116.275l-.298.677c-.07.144-.135.293-.2.438-.028.065-.061.13-.089.196a30.41 30.41 0 01-.535 1.105c-.21.429-.424.858-.652 1.278-.2.391-.409.773-.628 1.156a44.72 44.72 0 01-1.183 2 63.158 63.158 0 01-.591.933 19.12 19.12 0 01-.419.643c-.098.145-.195.29-.293.43a13.69 13.69 0 01-.512.732c-.047.074-.098.144-.149.214-.261.364-.522.718-.787 1.072-.009.005-.009.01-.014.014-.009 0-.009.005-.014.01a15.88 15.88 0 01-.354.457 12.8 12.8 0 01-.503.643c-.279.355-.572.714-.87 1.063-.009.01-.014.019-.023.024a49.739 49.739 0 01-5 5.092c-.033.028-.056.056-.089.079-.251.22-.502.438-.763.653l-.321.265c-.177.15-.359.299-.536.434a.355.355 0 01-.07.056c-.158.13-.311.252-.47.373-.191.154-.381.299-.577.443-.922.7-1.868 1.36-2.84 1.982a14.18 14.18 0 01-.707.448 42.984 42.984 0 01-2.137 1.245c-.768.419-1.527.858-2.267 1.315a52.513 52.513 0 00-5.335 3.758 51.57 51.57 0 00-3.888 3.455 20.08 20.08 0 00-.46.462c-.308.303-.606.611-.89.918-.456.471-.894.956-1.326 1.446a52.441 52.441 0 00-6.034 8.403 49.453 49.453 0 00-2.365 4.611 49.806 49.806 0 00-1.466 3.609c-.293.816-.568 1.64-.824 2.472a51.211 51.211 0 00-1.359 5.553 49.415 49.415 0 00-.531 3.474 52.006 52.006 0 001.941 21.413c.14.452.289.9.438 1.347a50.373 50.373 0 002.118 5.283 52.067 52.067 0 008.785 13.145c.004 0 0 .005 0 .005a51.626 51.626 0 004.017 3.936h.005c.563.498 1.136.982 1.718 1.45.004-.005.004 0 .004 0a46.52 46.52 0 002.705 2.033c.61.433 1.232.852 1.867 1.254h.004c.634.411 1.276.802 1.928 1.175a52.182 52.182 0 004.027 2.094l.232.107.238-.107a50.835 50.835 0 016.815-2.504 46.278 46.278 0 011.541-.415 50.805 50.805 0 013.911-.811 32.178 32.178 0 00-3.697 2.177c-.917.62-1.82 1.296-2.728 2.043-.302.247-.605.503-.908.764l-.754.653.945.313c.345.111.689.223 1.034.326.47.149.936.284 1.392.41.996.28 1.998.527 3.007.742l.736.154a72.705 72.705 0 001.508.279c.503.084 1.01.164 1.513.233a47 47 0 002.807.322c.103.014.205.019.312.024.228.018.452.037.68.051.503.032 1.01.056 1.517.074.038 0 .07.005.108.005.256.009.512.019.768.023 0 0 0 .005.004 0 .256.005.512.01.768.01h1.416c.265 0 .53.004.8.004.373 0 .75.005 1.122.01.098 0 .2.004.303.004.596.01 1.192.024 1.788.038.037 0 .074.004.111.004a118.65 118.65 0 012.184.084c.572.024 1.145.052 1.717.084.163.01.331.024.499.033.433.023.87.051 1.303.084.256.014.508.032.764.056 1.033.079 2.062.168 3.095.27.345.028.689.065 1.034.103.922.098 1.846.205 2.774.322.415.046.829.102 1.243.158.047.005.094.009.14.019.512.07 1.02.14 1.532.214.335.047.67.098 1.005.149.345.052.689.103 1.034.164.186.028.372.06.563.093.447.07.899.144 1.35.228a126.68 126.68 0 013.003.555c.563.108 1.122.219 1.68.336.438.089.876.182 1.313.275.075.014.149.033.224.051a145.2 145.2 0 018.915 2.234c.526.145 1.052.298 1.578.452l.661.196c.456.135.908.271 1.364.415.4.121.805.247 1.206.378.251.079.502.158.754.242.391.122.782.247 1.168.383.331.102.657.209.983.326.465.154.935.313 1.401.48.135.047.274.094.409.145.568.196 1.136.396 1.704.606.554.201 1.108.406 1.658.611.381.144.763.284 1.14.434.424.163.848.326 1.266.494.606.238 1.216.48 1.821.727.558.224 1.112.453 1.671.69.102.042.209.084.312.131.484.201.968.41 1.448.62.312.131.619.266.926.401a172.29 172.29 0 014.018 1.823h.004c.838.397 1.69.774 2.547 1.134.2.083.4.167.605.247.34.144.684.279 1.029.419.223.089.447.178.675.261.33.131.666.257 1.001.378.354.131.703.261 1.061.383.126.046.252.088.382.135a91.199 91.199 0 001.378.457 64.834 64.834 0 001.424.443 66.764 66.764 0 003.962 1.068c.382.093.759.181 1.141.265.405.094.814.177 1.219.261.41.084.82.168 1.225.243.219.042.437.084.652.121l.572.098c.396.07.792.131 1.192.196a63.884 63.884 0 002.681.359l.275.028c.359.042.717.084 1.075.117l.308.028c.354.032.707.065 1.061.088.071.009.143.014.214.014.317.028.633.051.95.065.223.019.442.028.666.042l.344.014c.307.019.615.028.927.038.377.014.754.023 1.126.032.452.01.908.014 1.36.014h.009c.442 0 .889-.004 1.331-.014h.168l.489-.014c.251-.004.503-.014.749-.023a72.44 72.44 0 001.415-.07c.187-.009.378-.023.564-.033.084-.004.172-.014.256-.018.293-.019.582-.038.875-.061.303-.023.61-.051.913-.084a93.198 93.198 0 002.09-.228c.04-.004.081-.01.121-.019.293-.033.586-.07.875-.112.344-.047.684-.098 1.024-.149l.107-.014a81.488 81.488 0 001.769-.294 80.81 80.81 0 001.853-.359c.228-.046.452-.098.68-.144.126-.028.256-.052.377-.08.191-.042.377-.084.563-.13.033-.005.07-.014.103-.019.26-.056.516-.121.777-.186a53.757 53.757 0 001.546-.397 22.8 22.8 0 00.675-.177c.065-.019.13-.037.191-.056a83.74 83.74 0 002.811-.844c.41-.13.815-.266 1.22-.41a75.114 75.114 0 002.588-.942c.229-.084.457-.177.685-.266.335-.135.67-.27 1.001-.406.298-.126.596-.251.898-.382.149-.061.298-.126.447-.191.447-.196.894-.397 1.336-.597.298-.14.591-.275.885-.415.465-.224.926-.452 1.387-.681.116-.06.228-.121.34-.177.293-.149.586-.303.884-.452.471-.252.941-.504 1.406-.765.159-.084.312-.173.47-.261.513-.289 1.02-.583 1.523-.882a75.909 75.909 0 003.291-2.089c.27-.177.54-.363.805-.545.503-.345.997-.7 1.49-1.054.051-.037.098-.075.149-.107a74.435 74.435 0 002.267-1.73c.01-.005.024-.019.038-.028.228-.182.456-.364.679-.546a64.8 64.8 0 002.049-1.73c.33-.284.656-.578.977-.872.242-.219.484-.438.722-.662.479-.452.949-.9 1.415-1.357.233-.224.461-.457.694-.69.228-.233.461-.466.689-.704.079-.079.158-.163.237-.247.233-.247.466-.499.698-.746.2-.215.396-.438.596-.662.335-.373.675-.746 1.006-1.124a.642.642 0 01.056-.061c.018-.023.037-.042.051-.06h-.005a73.212 73.212 0 0014.751-26.956 73.296 73.296 0 002.397-30.645 73.255 73.255 0 00-10.38-28.927 73.122 73.122 0 00-21.325-22.106z" fill="#71BBFF"/><path opacity=".15" d="M312.407 30.79a36.666 36.666 0 004.147 9.476 50.383 50.383 0 01-8.12-8.883c1.316-.25 2.64-.447 3.973-.592zm-45.425 51.637a51.99 51.99 0 00-9.604 6.761 53.055 53.055 0 0010.619-20.167l.073-.268.07-.252a51.848 51.848 0 0113.767-23.293l.517-.504.364.623a50.651 50.651 0 007.178 9.473c-4.222 11.935-12.439 21.867-22.984 27.627zm24.267-31.762l-.069.252-.073.268c-.136.491-.281.978-.43 1.463a54.098 54.098 0 01-3.083-11.852l-.054-.344.282-.202a52.215 52.215 0 0111.453-6.236 52.01 52.01 0 00-8.026 16.651zm-47.377 49.598a46.846 46.846 0 008.509-5.983 51.867 51.867 0 00-10.902 21.023 51.923 51.923 0 00-.423 23.685 51.86 51.86 0 0010.143 21.4 51.743 51.743 0 0018.591 14.644l.235.109.235-.106a49.568 49.568 0 0112.271-3.733 35.458 35.458 0 00-7.333 4.987l-.753.652.945.312a52.206 52.206 0 0016.736 2.658c21.974-.141 44.118 4.947 65.818 15.124a73.841 73.841 0 0011.54 4.271 72.64 72.64 0 0051.722-4.86 73.139 73.139 0 01-34.135 22.203 73.039 73.039 0 01-40.697.493 73.82 73.82 0 01-11.54-4.272c-21.699-10.176-43.844-15.264-65.818-15.123a52.206 52.206 0 01-16.736-2.658l-.945-.312.753-.652a35.485 35.485 0 017.333-4.987 49.58 49.58 0 00-12.271 3.733l-.235.106-.235-.109a51.793 51.793 0 01-21.378-18.474 51.919 51.919 0 01-1.649-54.392 51.8 51.8 0 0120.219-19.739z" fill="#000"/></g><defs><clipPath id="clip0_56:198"><path fill="#fff" d="M0 0h439v371H0z"/></clipPath></defs></svg>